Coordinates
version=1
nRows=29
nColumns=24
inDegrees=yes

Units are S.I. units (second, meters, Newtons, ...)
Angles are in degrees.

endheader
time	pelvis_tilt	pelvis_list	pelvis_rotation	pelvis_tx	pelvis_ty	pelvis_tz	hip_flexion_r	hip_adduction_r	hip_rotation_r	knee_angle_r	ankle_angle_r	subtalar_angle_r	mtp_angle_r	hip_flexion_l	hip_adduction_l	hip_rotation_l	knee_angle_l	ankle_angle_l	subtalar_angle_l	mtp_angle_l	lumbar_extension	lumbar_bending	lumbar_rotation
      1.43433333	      0.89648386	      0.41035654	     -3.74095307	      0.27619883	      1.01948166	      0.26229860	     12.05453215	     -4.94352244	     -5.67627338	    -64.47444503	      5.56732078	     -2.99786391	      7.76339970	     10.22930357	      1.17385522	    -10.17688915	    -12.99876608	      1.87835614	    -11.12908171	     -2.60704408	    -12.66760976	     -3.10526466	      4.49391785
      1.43850000	      0.91749674	      0.38558011	     -3.51486076	      0.28095868	      1.02016559	      0.26158297	     12.63008975	     -4.89719221	     -5.95250695	    -64.33000367	      5.82481083	     -3.52344859	      7.67815558	      9.81343159	      1.23685890	    -10.03444913	    -12.78125256	      1.97523534	    -10.96603789	     -2.60902838	    -12.76113686	     -3.03469264	      4.37450851
      1.44266667	      1.00065979	      0.26536537	     -3.06096779	      0.28581023	      1.02104460	      0.26027650	     13.02028971	     -4.83834416	     -6.50041236	    -63.99742511	      5.93051667	     -4.00330251	      6.62998873	      9.32901509	      1.27297172	     -9.53328831	    -12.53972303	      2.04745423	    -11.01123103	     -2.67927276	    -12.92203931	     -2.77984838	      3.74892059
      1.44683333	      1.00545130	      0.17625952	     -2.83404062	      0.29058564	      1.02171320	      0.25963076	     13.56880935	     -4.71506228	     -6.79395708	    -63.68348892	      6.03018023	     -4.59481305	      6.46677952	      8.93494337	      1.24262324	     -9.42198607	    -12.35362115	      2.24524150	    -10.72170442	     -2.68566748	    -12.97896216	     -2.64735653	      3.62453183
      1.45100000	      1.07980002	      0.05622774	     -2.52995348	      0.29540140	      1.02251730	      0.25875776	     13.98456828	     -4.60167314	     -7.18553378	    -63.26246590	      6.18535130	     -5.06704577	      6.14308657	      8.46087507	      1.20487656	     -9.21218916	    -12.14402859	      2.37088555	    -10.50047612	     -2.70270372	    -13.12768915	     -2.42914978	      3.29460450
      1.45516667	      1.15102500	     -0.03827126	     -2.23625950	      0.30022127	      1.02328744	      0.25788298	     14.39818136	     -4.52572005	     -7.57792399	    -62.79181357	      6.28014318	     -5.55943042	      5.83593405	      7.98072260	      1.19492935	     -8.99639728	    -11.91133016	      2.48483599	    -10.35816969	     -2.71915303	    -13.25321906	     -2.24784435	      3.03239167
      1.45933333	      1.18285129	     -0.06085949	     -2.02762527	      0.30493164	      1.02388873	      0.25717513	     14.90043475	     -4.50755724	     -7.86808463	    -62.34800243	      6.42048024	     -6.02817036	      5.72547570	      7.54112199	      1.24423168	     -8.85067320	    -11.66564464	      2.57378064	    -10.20181409	     -2.72289003	    -13.35925066	     -2.16749666	      2.92243192
      1.46350000	      1.28036225	     -0.21797092	     -1.70038535	      0.30976193	      1.02470895	      0.25627030	     15.22471893	     -4.37223551	     -8.30629964	    -61.70573996	      6.41837818	     -6.47559135	      5.50330367	      7.03770407	      1.15980121	     -8.59585748	    -11.44941058	      2.74301042	    -10.02326892	     -2.73178360	    -13.51241320	     -1.92815180	      2.57689982
      1.46766667	      1.41127900	     -0.33222212	     -1.37726394	      0.31454816	      1.02551318	      0.25532030	     15.51371294	     -4.30263854	     -8.74789621	    -61.04712223	      6.51151748	     -6.84416315	      5.24187467	      6.49524221	      1.12384670	     -8.34213982	    -11.20836001	      2.85165675	     -9.86385789	     -2.74339790	    -13.71788857	     -1.70251695	      2.24579806
      1.47183333	      1.57515698	     -0.44183277	     -1.06561280	      0.31934173	      1.02634992	      0.25436982	     15.74759961	     -4.24303148	     -9.17550040	    -60.33173578	      6.68418599	     -7.04601140	      4.79724812	      5.90439838	      1.09175075	     -8.07845754	    -10.93859398	      2.91687893	     -9.76651276	     -2.76706878	    -13.96246036	     -1.48039185	      1.88577174
      1.47600000	      1.61285340	     -0.52385198	     -0.82428829	      0.32410116	      1.02691968	      0.25363631	     16.14469549	     -4.17599941	     -9.51970420	    -59.60622576	      6.70945187	     -7.41745136	      4.57739031	      5.46267387	      1.06302998	     -7.90366667	    -10.70575538	      3.04252736	     -9.62865815	     -2.77633759	    -14.05000927	     -1.32588283	      1.73174313
      1.48016667	      1.80477799	     -0.63064476	     -0.50792366	      0.32888984	      1.02774770	      0.25270597	     16.31050598	     -4.12428427	     -9.95907557	    -58.77923593	      6.87553825	     -7.55661995	      4.11965057	      4.84515515	      1.02187532	     -7.65050066	    -10.43829608	      3.11706321	     -9.51401362	     -2.79782970	    -14.32174840	     -1.11480849	      1.34047622
      1.48433333	      1.85497484	     -0.72507930	     -0.26048240	      0.33363052	      1.02828538	      0.25200301	     16.65495260	     -4.04425185	    -10.30897284	    -57.93757772	      6.89862348	     -7.82746438	      3.87262956	      4.39661322	      0.96958727	     -7.46226300	    -10.21247186	      3.24294174	     -9.37865947	     -2.80693371	    -14.42589056	     -0.95283763	      1.18317598
      1.48850000	      2.01002320	     -0.80261695	      0.03257419	      0.33842045	      1.02897546	      0.25113627	     16.84138507	     -4.01991547	    -10.72475179	    -57.03280456	      7.04917267	     -7.93769308	      3.46285059	      3.81989148	      0.94703440	     -7.23264547	     -9.94636407	      3.31860376	     -9.27697013	     -2.82351166	    -14.64917831	     -0.76723002	      0.83271878
      1.49266667	      2.13125968	     -0.89306134	      0.29108732	      0.34321125	      1.02959340	      0.25036520	     17.05395178	     -3.96349527	    -11.09947941	    -56.06833499	      7.11061600	     -8.00058156	      2.92180643	      3.27479945	      0.90146261	     -7.02129560	     -9.67176947	      3.37100621	     -9.21500681	     -2.84559073	    -14.82667210	     -0.58106440	      0.55857635
      1.49683333	      2.15196175	     -0.96445791	      0.50913487	      0.34798088	      1.02996742	      0.24975302	     17.38794567	     -3.90415689	    -11.42365972	    -55.09934975	      7.17085588	     -8.16350981	      2.74880646	      2.86208504	      0.85719085	     -6.89225183	     -9.45650052	      3.50239859	     -9.08513419	     -2.84869924	    -14.88177154	     -0.43392233	      0.46417704
      1.50100000	      2.28777902	     -1.04082203	      0.76222086	      0.35273736	      1.03052602	      0.24906631	     17.55454553	     -3.85148947	    -11.78183660	    -54.04590565	      7.25203814	     -8.19011032	      2.50850896	      2.30976176	      0.81244362	     -6.68213671	     -9.19753676	      3.60076244	     -8.97827131	     -2.85259585	    -15.08838625	     -0.27909780	      0.16473850
      1.50516667	      2.35493406	     -1.10034384	      0.99240284	      0.35752005	      1.03093037	      0.24842809	     17.78961108	     -3.81199444	    -12.11873387	    -52.96531433	      7.31256873	     -8.21901381	      2.29280864	      1.83285238	      0.78215999	     -6.49897990	     -8.94606362	      3.68972665	     -8.92067044	     -2.85555474	    -15.20146491	     -0.14022165	     -0.03043901
      1.50933333	      2.43672644	     -1.14295931	      1.21043969	      0.36229736	      1.03131438	      0.24783541	     17.99504224	     -3.78575748	    -12.44011822	    -51.84624031	      7.39042990	     -8.19883047	      2.07434763	      1.33753767	      0.76420030	     -6.33110046	     -8.68875365	      3.76619212	     -8.85149957	     -2.85688792	    -15.33432816	     -0.02524142	     -0.26907889
      1.51350000	      2.50836380	     -1.16658138	      1.41640418	      0.36706810	      1.03163522	      0.24728156	     18.20068392	     -3.77451909	    -12.74615250	    -50.69288750	      7.45227080	     -8.17633002	      1.85774818	      0.85090058	      0.76427250	     -6.16274868	     -8.42826196	      3.84281630	     -8.81458600	     -2.85695295	    -15.45539198	      0.06570059	     -0.46604413
      1.51766667	      2.54650719	     -1.18844548	      1.60566859	      0.37185719	      1.03187289	      0.24679795	     18.42728494	     -3.75312965	    -13.02987475	    -49.49552423	      7.50362993	     -8.14104781	      1.66942099	      0.40270437	      0.75893970	     -6.02087887	     -8.17825280	      3.93011005	     -8.75186008	     -2.85543202	    -15.53403840	      0.14682054	     -0.65127127
      1.52183333	      2.57799448	     -1.19531342	      1.78421412	      0.37665158	      1.03206039	      0.24635121	     18.64637259	     -3.74241704	    -13.30000164	    -48.26072809	      7.54571612	     -8.09186446	      1.48459070	     -0.04181687	      0.76685377	     -5.88410524	     -7.92252658	      4.00238692	     -8.70163487	     -2.85314263	    -15.60762709	      0.20884047	     -0.83362961
      1.52600000	      2.59572577	     -1.18933324	      1.94836072	      0.38145275	      1.03218367	      0.24595420	     18.86682475	     -3.73786588	    -13.55283059	    -46.98944205	      7.58289187	     -8.02640271	      1.31639791	     -0.47419367	      0.78517456	     -5.76161664	     -7.66636592	      4.08201977	     -8.65392488	     -2.85028070	    -15.66343432	      0.25072536	     -0.99955872
      1.53016667	      2.51011651	     -1.12431785	      2.01730587	      0.38625157	      1.03207039	      0.24578886	     19.22413718	     -3.75897539	    -13.67859932	    -45.73306810	      7.61651103	     -7.94067551	      1.26664499	     -0.80286276	      0.86273982	     -5.74080102	     -7.40812183	      4.11217629	     -8.59896819	     -2.84910959	    -15.59664860	      0.18643364	     -1.06283618
      1.53433333	      2.55557970	     -1.13559366	      2.23788915	      0.39106508	      1.03219788	      0.24530570	     19.35027371	     -3.74909773	    -14.00303253	    -44.34062976	      7.60959964	     -7.90128338	      1.11465280	     -1.25350420	      0.85551373	     -5.56315122	     -7.17525954	      4.25240610	     -8.51820495	     -2.84383309	    -15.68821332	      0.26841328	     -1.28719055
      1.53850000	      2.45360744	     -1.05145240	      2.28890402	      0.39590808	      1.03198453	      0.24520854	     19.69013670	     -3.78136989	    -14.11842285	    -43.00975652	      7.62429524	     -7.78326348	      1.06990530	     -1.57451010	      0.95023592	     -5.56453180	     -6.90794471	      4.28606747	     -8.48250680	     -2.84286997	    -15.60994511	      0.17166302	     -1.35478126
      1.54266667	      2.37799168	     -0.99167502	      2.38008362	      0.40074394	      1.03180569	      0.24504728	     19.96010687	     -3.79168912	    -14.27224950	    -41.59918367	      7.60879140	     -7.68319045	      1.01693721	     -1.91294033	      1.01484947	     -5.51915928	     -6.65997949	      4.35211667	     -8.41786613	     -2.84103949	    -15.55470374	      0.12467716	     -1.44745588
      1.54683333	      2.41058872	     -0.96507577	      2.58153839	      0.40558849	      1.03180867	      0.24465091	     20.04495378	     -3.80413033	    -14.57127043	    -40.09094921	      7.58281002	     -7.63366180	      0.88462727	     -2.35577083	      1.03822404	     -5.36506828	     -6.42814592	      4.50023506	     -8.30775715	     -2.83643720	    -15.62643165	      0.16411947	     -1.67117529
      1.55100000	      2.27714035	     -0.81470461	      2.59935535	      0.41042791	      1.03141406	      0.24465002	     20.38152547	     -3.88639514	    -14.63463864	    -38.67893523	      7.59279331	     -7.52325418	      0.86376312	     -2.65227168	      1.20369385	     -5.36876883	     -6.15930731	      4.57691461	     -8.25784338	     -2.83544026	    -15.50485285	     -0.00969698	     -1.71255871
